<svg width="178" height="34" viewBox="0 0 178 34" fill="none" xmlns="http://www.w3.org/2000/svg">
<rect x="7.33566" y="17" width="22.6274" height="22.6274" transform="rotate(-45 7.33566 17)" fill="#FF1952" stroke="#F2F0EC"/>
<rect x="4.16785" y="16.9678" width="18.1019" height="18.1019" transform="rotate(-45 4.16785 16.9678)" fill="#FF517C" stroke="#F2F0EC"/>
<rect x="1" y="17.1619" width="13.5765" height="13.5765" transform="rotate(-45 1 17.1619)" fill="#FF7799" stroke="#F2F0EC"/>
<path d="M58.7344 9.16797H52.8867V25H51.4453V9.16797H45.6094V7.9375H58.7344V9.16797ZM62.7422 25H61.3359V12.3203H62.7422V25ZM61.0898 8.65234C61.0898 8.38672 61.1758 8.16406 61.3477 7.98438C61.5195 7.79688 61.7539 7.70312 62.0508 7.70312C62.3477 7.70312 62.582 7.79688 62.7539 7.98438C62.9336 8.16406 63.0234 8.38672 63.0234 8.65234C63.0234 8.91797 62.9336 9.14062 62.7539 9.32031C62.582 9.5 62.3477 9.58984 62.0508 9.58984C61.7539 9.58984 61.5195 9.5 61.3477 9.32031C61.1758 9.14062 61.0898 8.91797 61.0898 8.65234ZM67.8398 12.3203L67.8867 14.3828C68.3555 13.6172 68.9414 13.043 69.6445 12.6602C70.3477 12.2773 71.1289 12.0859 71.9883 12.0859C73.9883 12.0859 75.2578 12.9062 75.7969 14.5469C76.25 13.7578 76.8555 13.1523 77.6133 12.7305C78.3711 12.3008 79.207 12.0859 80.1211 12.0859C82.8398 12.0859 84.2266 13.5703 84.2812 16.5391V25H82.875V16.6445C82.8672 15.5117 82.6211 14.6719 82.1367 14.125C81.6602 13.5781 80.8789 13.3047 79.793 13.3047C78.7852 13.3203 77.9336 13.6484 77.2383 14.2891C76.543 14.9219 76.1562 15.6953 76.0781 16.6094V25H74.6719V16.5391C74.6641 15.4531 74.4062 14.6445 73.8984 14.1133C73.3984 13.5742 72.625 13.3047 71.5781 13.3047C70.6953 13.3047 69.9375 13.5586 69.3047 14.0664C68.6719 14.5664 68.2031 15.3125 67.8984 16.3047V25H66.4922V12.3203H67.8398ZM92.7539 25.2344C91.6758 25.2344 90.6992 24.9688 89.8242 24.4375C88.957 23.9062 88.2812 23.168 87.7969 22.2227C87.3125 21.2695 87.0703 20.2031 87.0703 19.0234V18.5195C87.0703 17.3008 87.3047 16.2031 87.7734 15.2266C88.25 14.25 88.9102 13.4844 89.7539 12.9297C90.5977 12.3672 91.5117 12.0859 92.4961 12.0859C94.0352 12.0859 95.2539 12.6133 96.1523 13.668C97.0586 14.7148 97.5117 16.1484 97.5117 17.9688V18.7539H88.4648V19.0234C88.4648 20.4609 88.875 21.6602 89.6953 22.6211C90.5234 23.5742 91.5625 24.0508 92.8125 24.0508C93.5625 24.0508 94.2227 23.9141 94.793 23.6406C95.3711 23.3672 95.8945 22.9297 96.3633 22.3281L97.2422 22.9961C96.2109 24.4883 94.7148 25.2344 92.7539 25.2344ZM92.4961 13.2812C91.4414 13.2812 90.5508 13.668 89.8242 14.4414C89.1055 15.2148 88.668 16.2539 88.5117 17.5586H96.1172V17.4062C96.0781 16.1875 95.7305 15.1953 95.0742 14.4297C94.418 13.6641 93.5586 13.2812 92.4961 13.2812ZM117.516 9.16797H111.668V25H110.227V9.16797H104.391V7.9375H117.516V9.16797ZM124.922 13.5156C124.625 13.4609 124.309 13.4336 123.973 13.4336C123.098 13.4336 122.355 13.6797 121.746 14.1719C121.145 14.6562 120.715 15.3633 120.457 16.293V25H119.062V12.3203H120.434L120.457 14.3359C121.199 12.8359 122.391 12.0859 124.031 12.0859C124.422 12.0859 124.73 12.1367 124.957 12.2383L124.922 13.5156ZM128.719 25H127.312V12.3203H128.719V25ZM127.066 8.65234C127.066 8.38672 127.152 8.16406 127.324 7.98438C127.496 7.79688 127.73 7.70312 128.027 7.70312C128.324 7.70312 128.559 7.79688 128.73 7.98438C128.91 8.16406 129 8.38672 129 8.65234C129 8.91797 128.91 9.14062 128.73 9.32031C128.559 9.5 128.324 9.58984 128.027 9.58984C127.73 9.58984 127.496 9.5 127.324 9.32031C127.152 9.14062 127.066 8.91797 127.066 8.65234ZM131.977 18.543C131.977 16.5586 132.414 14.9883 133.289 13.832C134.172 12.668 135.367 12.0859 136.875 12.0859C138.602 12.0859 139.914 12.7734 140.812 14.1484L140.883 12.3203H142.195V24.7422C142.195 26.375 141.738 27.668 140.824 28.6211C139.91 29.5742 138.672 30.0508 137.109 30.0508C136.227 30.0508 135.383 29.8516 134.578 29.4531C133.781 29.0625 133.152 28.5391 132.691 27.8828L133.477 27.0391C134.469 28.2578 135.648 28.8672 137.016 28.8672C138.188 28.8672 139.102 28.5195 139.758 27.8242C140.414 27.1367 140.754 26.1797 140.777 24.9531V23.3594C139.879 24.6094 138.57 25.2344 136.852 25.2344C135.383 25.2344 134.203 24.6484 133.312 23.4766C132.422 22.3047 131.977 20.7227 131.977 18.7305V18.543ZM133.395 18.7891C133.395 20.4062 133.719 21.6836 134.367 22.6211C135.016 23.5508 135.93 24.0156 137.109 24.0156C138.836 24.0156 140.059 23.2422 140.777 21.6953V15.8008C140.449 14.9883 139.977 14.3711 139.359 13.9492C138.742 13.5195 138 13.3047 137.133 13.3047C135.953 13.3047 135.035 13.7695 134.379 14.6992C133.723 15.6211 133.395 16.9844 133.395 18.7891ZM145.289 18.543C145.289 16.5586 145.727 14.9883 146.602 13.832C147.484 12.668 148.68 12.0859 150.188 12.0859C151.914 12.0859 153.227 12.7734 154.125 14.1484L154.195 12.3203H155.508V24.7422C155.508 26.375 155.051 27.668 154.137 28.6211C153.223 29.5742 151.984 30.0508 150.422 30.0508C149.539 30.0508 148.695 29.8516 147.891 29.4531C147.094 29.0625 146.465 28.5391 146.004 27.8828L146.789 27.0391C147.781 28.2578 148.961 28.8672 150.328 28.8672C151.5 28.8672 152.414 28.5195 153.07 27.8242C153.727 27.1367 154.066 26.1797 154.09 24.9531V23.3594C153.191 24.6094 151.883 25.2344 150.164 25.2344C148.695 25.2344 147.516 24.6484 146.625 23.4766C145.734 22.3047 145.289 20.7227 145.289 18.7305V18.543ZM146.707 18.7891C146.707 20.4062 147.031 21.6836 147.68 22.6211C148.328 23.5508 149.242 24.0156 150.422 24.0156C152.148 24.0156 153.371 23.2422 154.09 21.6953V15.8008C153.762 14.9883 153.289 14.3711 152.672 13.9492C152.055 13.5195 151.312 13.3047 150.445 13.3047C149.266 13.3047 148.348 13.7695 147.691 14.6992C147.035 15.6211 146.707 16.9844 146.707 18.7891ZM164.074 25.2344C162.996 25.2344 162.02 24.9688 161.145 24.4375C160.277 23.9062 159.602 23.168 159.117 22.2227C158.633 21.2695 158.391 20.2031 158.391 19.0234V18.5195C158.391 17.3008 158.625 16.2031 159.094 15.2266C159.57 14.25 160.23 13.4844 161.074 12.9297C161.918 12.3672 162.832 12.0859 163.816 12.0859C165.355 12.0859 166.574 12.6133 167.473 13.668C168.379 14.7148 168.832 16.1484 168.832 17.9688V18.7539H159.785V19.0234C159.785 20.4609 160.195 21.6602 161.016 22.6211C161.844 23.5742 162.883 24.0508 164.133 24.0508C164.883 24.0508 165.543 23.9141 166.113 23.6406C166.691 23.3672 167.215 22.9297 167.684 22.3281L168.562 22.9961C167.531 24.4883 166.035 25.2344 164.074 25.2344ZM163.816 13.2812C162.762 13.2812 161.871 13.668 161.145 14.4414C160.426 15.2148 159.988 16.2539 159.832 17.5586H167.438V17.4062C167.398 16.1875 167.051 15.1953 166.395 14.4297C165.738 13.6641 164.879 13.2812 163.816 13.2812ZM177.422 13.5156C177.125 13.4609 176.809 13.4336 176.473 13.4336C175.598 13.4336 174.855 13.6797 174.246 14.1719C173.645 14.6562 173.215 15.3633 172.957 16.293V25H171.562V12.3203H172.934L172.957 14.3359C173.699 12.8359 174.891 12.0859 176.531 12.0859C176.922 12.0859 177.23 12.1367 177.457 12.2383L177.422 13.5156Z" fill="#2E294E"/>
</svg>
