<svg width="1200" height="901" viewBox="0 0 1200 901" fill="none" xmlns="http://www.w3.org/2000/svg">
<path d="M154.595 84.1868L159.428 97.0088L173.383 101.564L159.428 106.035L154.595 118.941L149.669 106.035L135.715 101.564L149.669 97.0088L154.595 84.1868Z" fill="white"/>
<path d="M1060.73 695.679L1065.65 708.585L1079.52 713.056L1065.65 717.611L1060.73 730.433L1055.89 717.611L1041.94 713.056L1055.89 708.585L1060.73 695.679Z" fill="white"/>
<path d="M1181.12 866.246L1185.95 879.068L1199.91 883.623L1185.95 888.094L1181.12 901L1176.2 888.094L1162.24 883.623L1176.2 879.068L1181.12 866.246Z" fill="white"/>
<path d="M1176.29 681.507L1180.12 691.546L1190.97 695.089L1180.12 698.632L1176.29 708.67L1172.46 698.632L1161.6 695.089L1172.46 691.546L1176.29 681.507Z" fill="white"/>
<path d="M1127.13 56.8556L1131.96 69.762L1145.91 74.2328L1131.96 78.788L1127.13 91.61L1122.2 78.788L1108.34 74.2328L1122.2 69.762L1127.13 56.8556Z" fill="white"/>
<path d="M623.394 810.487L625.583 816.054L631.603 818.079L625.583 820.019L623.394 825.586L621.297 820.019L615.277 818.079L621.297 816.054L623.394 810.487Z" fill="white"/>
<path d="M1174.46 582.052L1176.56 587.62L1182.67 589.644L1176.56 591.584L1174.46 597.152L1172.36 591.584L1166.34 589.644L1172.36 587.62L1174.46 582.052Z" fill="white"/>
<path d="M1060.73 574.545L1062.83 580.112L1068.85 582.052L1062.83 583.992L1060.73 589.644L1058.63 583.992L1052.61 582.052L1058.63 580.112L1060.73 574.545Z" fill="white"/>
<path d="M379.509 73.2205L382.61 81.3186L391.366 84.1867L382.61 86.9704L379.509 95.0685L376.499 86.9704L367.743 84.1867L376.499 81.3186L379.509 73.2205Z" fill="white"/>
<path d="M332.355 676.868L334.453 682.435L340.473 684.46L334.453 686.4L332.355 691.967L330.258 686.4L324.147 684.46L330.258 682.435L332.355 676.868Z" fill="white"/>
<path d="M8.20856 881.429L10.3063 886.997L16.3259 888.937L10.3063 890.877L8.20856 896.445L6.01961 890.877L0 888.937L6.01961 886.997L8.20856 881.429Z" fill="white"/>
<path d="M197.097 759.705L199.194 765.356L205.214 767.297L199.194 769.237L197.097 774.804L194.999 769.237L188.888 767.297L194.999 765.356L197.097 759.705Z" fill="white"/>
<path d="M168.549 626.508L175.937 646.078L197.097 652.911L175.937 659.828L168.549 679.314L161.161 659.828L140.002 652.911L161.161 646.078L168.549 626.508Z" fill="white"/>
<path d="M16.3259 488.333L18.4237 493.985L24.4433 495.925L18.4237 497.866L16.3259 503.433L14.2282 497.866L8.20856 495.925L14.2282 493.985L16.3259 488.333Z" fill="white"/>
<path d="M1118.92 353.112L1121.11 358.679L1127.13 360.619L1121.11 362.56L1118.92 368.127L1116.82 362.56L1110.8 360.619L1116.82 358.679L1118.92 353.112Z" fill="white"/>
<path d="M524.618 483.356L526.351 487.827L531.276 489.43L526.351 491.033L524.618 495.503L522.885 491.033L518.051 489.43L522.885 487.827L524.618 483.356Z" fill="white"/>
<path d="M280.185 188.956L281.918 193.427L286.844 195.03L281.918 196.632L280.185 201.103L278.544 196.632L273.619 195.03L278.544 193.427L280.185 188.956Z" fill="white"/>
<path d="M161.526 330.842L163.259 335.397L168.093 337L163.259 338.603L161.526 343.073L159.793 338.603L154.868 337L159.793 335.397L161.526 330.842Z" fill="white"/>
<path d="M885.065 36.8634L886.798 41.3342L891.723 42.937L886.798 44.5397L885.065 49.0106L883.332 44.5397L878.498 42.937L883.332 41.3342L885.065 36.8634Z" fill="white"/>
<path d="M885.065 317.26L886.798 321.731L891.723 323.334L886.798 324.937L885.065 329.408L883.332 324.937L878.498 323.334L883.332 321.731L885.065 317.26Z" fill="white"/>
<path d="M1181.12 16.6179L1182.76 21.1731L1187.69 22.7759L1182.76 24.2943L1181.12 28.8495L1179.39 24.2943L1174.46 22.7759L1179.39 21.1731L1181.12 16.6179Z" fill="white"/>
<path d="M799.787 0L807.084 19.3174L828.061 26.1502L807.084 32.8986L799.787 52.216L792.491 32.8986L771.513 26.1502L792.491 19.3174L799.787 0Z" fill="white"/>
<path d="M312.837 532.03L314.57 536.5L319.404 538.103L314.57 539.706L312.837 544.177L311.104 539.706L306.27 538.103L311.104 536.5L312.837 532.03Z" fill="white"/>
<path d="M852.687 790.916L855.149 797.496L862.263 799.858L855.149 802.135L852.687 808.715L850.224 802.135L843.019 799.858L850.224 797.496L852.687 790.916Z" fill="white"/>
<path d="M496.162 706.645L497.986 711.369L503.093 713.056L497.986 714.743L496.162 719.467L494.338 714.743L489.23 713.056L494.338 711.369L496.162 706.645Z" fill="white"/>
<path d="M767.135 700.656L768.777 705.042L773.52 706.645L768.777 708.164L767.135 712.55L765.402 708.164L760.66 706.645L765.402 705.042L767.135 700.656Z" fill="white"/>
<path d="M843.019 472.414L845.664 479.247L853.052 481.693L845.664 484.055L843.019 490.888L840.465 484.055L833.078 481.693L840.465 479.247L843.019 472.414Z" fill="white"/>
<path d="M1166.25 404.822L1172.55 421.355L1190.33 427.091L1172.55 432.912L1166.25 449.361L1160.05 432.912L1142.18 427.091L1160.05 421.355L1166.25 404.822Z" fill="white"/>
<path d="M65.6685 720.648L68.4046 727.903L76.3396 730.518L68.4046 733.048L65.6685 740.387L62.8411 733.048L54.9061 730.518L62.8411 727.903L65.6685 720.648Z" fill="white"/>
<path d="M1060.73 818.078L1063.56 825.333L1071.4 827.948L1063.56 830.479L1060.73 837.818L1057.99 830.479L1050.06 827.948L1057.99 825.333L1060.73 818.078Z" fill="white"/>
<path d="M117.018 553.118L118.842 557.927L124.04 559.529L118.842 561.217L117.018 566.025L115.193 561.217L109.995 559.529L115.193 557.927L117.018 553.118Z" fill="white"/>
<path d="M947.724 509.928L949.548 514.737L954.746 516.424L949.548 518.111L947.724 522.919L945.9 518.111L940.701 516.424L945.9 514.737L947.724 509.928Z" fill="white"/>
<path d="M1108.34 489.43L1110.16 494.238L1115.27 495.925L1110.16 497.612L1108.34 502.421L1106.51 497.612L1101.31 495.925L1106.51 494.238L1108.34 489.43Z" fill="white"/>
<path d="M56.7303 397.989L61.1994 409.799L73.877 413.848L61.1994 417.981L56.7303 429.706L52.2612 417.981L39.5835 413.848L52.2612 409.799L56.7303 397.989Z" fill="white"/>
<path d="M421.555 789.904L424.291 797.243L432.226 799.858L424.291 802.388L421.555 809.727L418.728 802.388L410.793 799.858L418.728 797.243L421.555 789.904Z" fill="white"/>
<path d="M725.671 503.446L728.499 510.784L736.433 513.399L728.499 515.93L725.671 523.269L722.935 515.93L715 513.399L722.935 510.784L725.671 503.446Z" fill="white"/>
</svg>
