<svg width="326" height="57" viewBox="0 0 326 57" fill="none" xmlns="http://www.w3.org/2000/svg">
<path d="M33.248 2.92578H17.7207V44H16.1387V2.92578H0.611328V1.34375H33.248V2.92578ZM41.8613 44H40.2793V12.3008H41.8613V44ZM39.459 2.39844C39.459 1.94922 39.6152 1.56836 39.9277 1.25586C40.2402 0.923828 40.6211 0.757812 41.0703 0.757812C41.5195 0.757812 41.9004 0.923828 42.2129 1.25586C42.5449 1.56836 42.7109 1.94922 42.7109 2.39844C42.7109 2.84766 42.5449 3.22852 42.2129 3.54102C41.9004 3.85352 41.5195 4.00977 41.0703 4.00977C40.6211 4.00977 40.2402 3.85352 39.9277 3.54102C39.6152 3.22852 39.459 2.84766 39.459 2.39844ZM74.9375 44H73.3555V22.7012C73.3359 19.5176 72.6328 17.1543 71.2461 15.6113C69.8789 14.0488 67.6914 13.2676 64.6836 13.2676C61.207 13.2676 58.3652 14.8008 56.1582 17.8672C54.8496 19.7031 53.9805 21.7344 53.5508 23.9609V44H51.9395V12.3008H53.5508V19.8008C54.625 17.2227 56.1582 15.2305 58.1504 13.8242C60.1426 12.418 62.3496 11.7148 64.7715 11.7148C67.4277 11.7148 69.5957 12.3008 71.2754 13.4727C72.9746 14.6445 74.0879 16.5586 74.6152 19.2148C75.5527 16.9297 77.0762 15.1133 79.1855 13.7656C81.2949 12.3984 83.6582 11.7148 86.2754 11.7148C89.6934 11.7148 92.2324 12.6816 93.8926 14.6152C95.5723 16.5488 96.4219 19.4492 96.4414 23.3164V44H94.8594V23.4336C94.8594 19.957 94.1562 17.3887 92.75 15.7285C91.3633 14.0488 89.1758 13.2285 86.1875 13.2676C82.3398 13.3262 79.293 14.8594 77.0469 17.8672C75.7578 19.6055 75.0547 21.2852 74.9375 22.9062V44ZM117.447 44.5859C114.889 44.5859 112.535 43.9023 110.387 42.5352C108.258 41.1484 106.588 39.2539 105.377 36.8516C104.166 34.4492 103.561 31.7832 103.561 28.8535V27.5352C103.561 24.6055 104.146 21.9199 105.318 19.4785C106.49 17.0371 108.102 15.1328 110.152 13.7656C112.203 12.3984 114.439 11.7148 116.861 11.7148C120.396 11.7148 123.287 12.9746 125.533 15.4941C127.779 18.0137 128.902 21.3242 128.902 25.4258V27.0957H105.143V28.8242C105.143 31.4023 105.68 33.7949 106.754 36.002C107.848 38.1895 109.342 39.9082 111.236 41.1582C113.15 42.4082 115.221 43.0332 117.447 43.0332C119.576 43.0332 121.383 42.6816 122.867 41.9785C124.371 41.2559 125.699 40.1523 126.852 38.668L127.965 39.459C125.602 42.877 122.096 44.5859 117.447 44.5859ZM116.861 13.2969C113.775 13.2969 111.158 14.4492 109.01 16.7539C106.861 19.0391 105.602 21.959 105.23 25.5137H127.32V25.1328C127.32 22.9844 126.861 20.9922 125.943 19.1562C125.045 17.3008 123.795 15.8652 122.193 14.8496C120.611 13.8145 118.834 13.2969 116.861 13.2969ZM178.678 2.92578H163.15V44H161.568V2.92578H146.041V1.34375H178.678V2.92578ZM197.076 13.4434L195.025 13.2676C192.33 13.2676 190.074 14.1465 188.258 15.9043C186.441 17.6426 185.25 20.084 184.684 23.2285V44H183.102V12.3008H184.684V18.8926C185.543 16.6855 186.832 14.9375 188.551 13.6484C190.27 12.3594 192.428 11.7148 195.025 11.7148C195.943 11.7148 196.686 11.8223 197.252 12.0371L197.076 13.4434ZM205.162 44H203.58V12.3008H205.162V44ZM202.76 2.39844C202.76 1.94922 202.916 1.56836 203.229 1.25586C203.541 0.923828 203.922 0.757812 204.371 0.757812C204.82 0.757812 205.201 0.923828 205.514 1.25586C205.846 1.56836 206.012 1.94922 206.012 2.39844C206.012 2.84766 205.846 3.22852 205.514 3.54102C205.201 3.85352 204.82 4.00977 204.371 4.00977C203.922 4.00977 203.541 3.85352 203.229 3.54102C202.916 3.22852 202.76 2.84766 202.76 2.39844ZM214.068 27.8281C214.068 22.7695 215.133 18.8242 217.262 15.9922C219.391 13.1406 222.311 11.7148 226.021 11.7148C228.385 11.7148 230.484 12.2617 232.32 13.3555C234.156 14.4297 235.631 16.0117 236.744 18.1016V12.3008H238.355V43.4434C238.355 47.623 237.281 50.8848 235.133 53.2285C232.984 55.5918 230.064 56.7734 226.373 56.7734C224.244 56.7734 222.291 56.3145 220.514 55.3965C218.756 54.4785 217.252 53.1602 216.002 51.4414L217.115 50.3867C218.346 51.9492 219.693 53.1406 221.158 53.9609C222.623 54.8008 224.342 55.2207 226.314 55.2207C229.576 55.2207 232.115 54.2246 233.932 52.2324C235.748 50.2598 236.686 47.4668 236.744 43.8535V38.9902C235.65 40.7871 234.166 42.1738 232.291 43.1504C230.436 44.1074 228.326 44.5859 225.963 44.5859C222.291 44.5859 219.391 43.1309 217.262 40.2207C215.133 37.3105 214.068 33.3164 214.068 28.2383V27.8281ZM215.68 28.4434C215.68 32.9746 216.578 36.5391 218.375 39.1367C220.172 41.7148 222.691 43.0039 225.934 43.0039C228.609 43.0039 230.885 42.3887 232.76 41.1582C234.635 39.9082 235.963 38.1602 236.744 35.9141V21.5293C235.025 16.041 231.441 13.2969 225.992 13.2969C222.73 13.2969 220.191 14.5762 218.375 17.1348C216.578 19.6934 215.68 23.4629 215.68 28.4434ZM246.998 27.8281C246.998 22.7695 248.062 18.8242 250.191 15.9922C252.32 13.1406 255.24 11.7148 258.951 11.7148C261.314 11.7148 263.414 12.2617 265.25 13.3555C267.086 14.4297 268.561 16.0117 269.674 18.1016V12.3008H271.285V43.4434C271.285 47.623 270.211 50.8848 268.062 53.2285C265.914 55.5918 262.994 56.7734 259.303 56.7734C257.174 56.7734 255.221 56.3145 253.443 55.3965C251.686 54.4785 250.182 53.1602 248.932 51.4414L250.045 50.3867C251.275 51.9492 252.623 53.1406 254.088 53.9609C255.553 54.8008 257.271 55.2207 259.244 55.2207C262.506 55.2207 265.045 54.2246 266.861 52.2324C268.678 50.2598 269.615 47.4668 269.674 43.8535V38.9902C268.58 40.7871 267.096 42.1738 265.221 43.1504C263.365 44.1074 261.256 44.5859 258.893 44.5859C255.221 44.5859 252.32 43.1309 250.191 40.2207C248.062 37.3105 246.998 33.3164 246.998 28.2383V27.8281ZM248.609 28.4434C248.609 32.9746 249.508 36.5391 251.305 39.1367C253.102 41.7148 255.621 43.0039 258.863 43.0039C261.539 43.0039 263.814 42.3887 265.689 41.1582C267.564 39.9082 268.893 38.1602 269.674 35.9141V21.5293C267.955 16.041 264.371 13.2969 258.922 13.2969C255.66 13.2969 253.121 14.5762 251.305 17.1348C249.508 19.6934 248.609 23.4629 248.609 28.4434ZM292.818 44.5859C290.26 44.5859 287.906 43.9023 285.758 42.5352C283.629 41.1484 281.959 39.2539 280.748 36.8516C279.537 34.4492 278.932 31.7832 278.932 28.8535V27.5352C278.932 24.6055 279.518 21.9199 280.689 19.4785C281.861 17.0371 283.473 15.1328 285.523 13.7656C287.574 12.3984 289.811 11.7148 292.232 11.7148C295.768 11.7148 298.658 12.9746 300.904 15.4941C303.15 18.0137 304.273 21.3242 304.273 25.4258V27.0957H280.514V28.8242C280.514 31.4023 281.051 33.7949 282.125 36.002C283.219 38.1895 284.713 39.9082 286.607 41.1582C288.521 42.4082 290.592 43.0332 292.818 43.0332C294.947 43.0332 296.754 42.6816 298.238 41.9785C299.742 41.2559 301.07 40.1523 302.223 38.668L303.336 39.459C300.973 42.877 297.467 44.5859 292.818 44.5859ZM292.232 13.2969C289.146 13.2969 286.529 14.4492 284.381 16.7539C282.232 19.0391 280.973 21.959 280.602 25.5137H302.691V25.1328C302.691 22.9844 302.232 20.9922 301.314 19.1562C300.416 17.3008 299.166 15.8652 297.564 14.8496C295.982 13.8145 294.205 13.2969 292.232 13.2969ZM325.631 13.4434L323.58 13.2676C320.885 13.2676 318.629 14.1465 316.812 15.9043C314.996 17.6426 313.805 20.084 313.238 23.2285V44H311.656V12.3008H313.238V18.8926C314.098 16.6855 315.387 14.9375 317.105 13.6484C318.824 12.3594 320.982 11.7148 323.58 11.7148C324.498 11.7148 325.24 11.8223 325.807 12.0371L325.631 13.4434Z" fill="#2E294E"/>
</svg>
