<svg width="187" height="34" viewBox="0 0 187 34" fill="none" xmlns="http://www.w3.org/2000/svg">
<rect x="7.33568" y="17" width="22.6274" height="22.6274" transform="rotate(-45 7.33568 17)" fill="#FF1952" stroke="#F2F0EC"/>
<rect x="4.16784" y="16.9678" width="18.1019" height="18.1019" transform="rotate(-45 4.16784 16.9678)" fill="#FF517C" stroke="#F2F0EC"/>
<rect x="1" y="17.1619" width="13.5765" height="13.5765" transform="rotate(-45 1 17.1619)" fill="#FF7799" stroke="#F2F0EC"/>
<path d="M56.096 8.448H50.288V7.008H63.488V8.448H57.68V24H56.096V8.448ZM66.5272 12.912H67.9672V24H66.5272V12.912ZM66.1672 8.52C66.1672 8.216 66.2712 7.96 66.4792 7.752C66.6872 7.544 66.9432 7.44 67.2472 7.44C67.5512 7.44 67.8072 7.544 68.0152 7.752C68.2232 7.96 68.3272 8.216 68.3272 8.52C68.3272 8.824 68.2232 9.08 68.0152 9.288C67.8072 9.496 67.5512 9.6 67.2472 9.6C66.9432 9.6 66.6872 9.496 66.4792 9.288C66.2712 9.08 66.1672 8.824 66.1672 8.52ZM72.0528 16.032C72.0528 15.824 72.0448 15.576 72.0288 15.288C72.0128 14.984 71.9968 14.68 71.9808 14.376C71.9808 14.072 71.9728 13.792 71.9568 13.536C71.9408 13.264 71.9328 13.056 71.9328 12.912H73.3728C73.3888 13.328 73.3968 13.728 73.3968 14.112C73.4128 14.496 73.4368 14.744 73.4688 14.856H73.5408C73.8288 14.248 74.3088 13.728 74.9808 13.296C75.6528 12.848 76.4368 12.624 77.3328 12.624C78.0688 12.624 78.7408 12.816 79.3488 13.2C79.9568 13.568 80.3968 14.176 80.6688 15.024C81.0208 14.192 81.5408 13.584 82.2288 13.2C82.9328 12.816 83.6688 12.624 84.4368 12.624C85.3008 12.624 86.0048 12.76 86.5488 13.032C87.0928 13.304 87.5168 13.664 87.8208 14.112C88.1408 14.544 88.3568 15.048 88.4688 15.624C88.5968 16.2 88.6608 16.792 88.6608 17.4V24H87.2208V17.472C87.2208 17.024 87.1808 16.592 87.1008 16.176C87.0208 15.744 86.8768 15.36 86.6688 15.024C86.4768 14.688 86.1968 14.424 85.8288 14.232C85.4768 14.024 85.0128 13.92 84.4368 13.92C83.7648 13.92 83.2128 14.048 82.7808 14.304C82.3488 14.544 82.0048 14.856 81.7488 15.24C81.5088 15.624 81.3328 16.04 81.2208 16.488C81.1248 16.936 81.0768 17.36 81.0768 17.76V24H79.6368V17.328C79.6368 16.304 79.4448 15.48 79.0608 14.856C78.6928 14.232 78.1168 13.92 77.3328 13.92C76.8048 13.92 76.3008 14.016 75.8208 14.208C75.3568 14.384 74.9488 14.664 74.5968 15.048C74.2608 15.416 73.9888 15.888 73.7808 16.464C73.5888 17.024 73.4928 17.688 73.4928 18.456V24H72.0528V16.032ZM102.282 21.912C101.722 22.76 101.026 23.368 100.194 23.736C99.3783 24.104 98.4743 24.288 97.4823 24.288C96.6343 24.288 95.8663 24.144 95.1783 23.856C94.4903 23.568 93.8983 23.168 93.4023 22.656C92.9063 22.128 92.5223 21.512 92.2503 20.808C91.9943 20.088 91.8663 19.296 91.8663 18.432C91.8663 17.6 92.0023 16.832 92.2743 16.128C92.5463 15.424 92.9303 14.816 93.4263 14.304C93.9223 13.776 94.5063 13.368 95.1783 13.08C95.8503 12.776 96.5943 12.624 97.4103 12.624C98.2583 12.624 99.0023 12.776 99.6423 13.08C100.298 13.368 100.842 13.76 101.274 14.256C101.722 14.736 102.058 15.288 102.282 15.912C102.506 16.536 102.618 17.168 102.618 17.808V18.816H93.3063C93.3063 19.12 93.3623 19.512 93.4743 19.992C93.6023 20.456 93.8263 20.912 94.1463 21.36C94.4663 21.808 94.8903 22.192 95.4183 22.512C95.9623 22.832 96.6583 22.992 97.5063 22.992C98.2423 22.992 98.9543 22.816 99.6423 22.464C100.33 22.112 100.858 21.632 101.226 21.024L102.282 21.912ZM101.178 17.52C101.178 17.024 101.074 16.56 100.866 16.128C100.674 15.696 100.402 15.32 100.05 15C99.7143 14.664 99.3063 14.4 98.8263 14.208C98.3623 14.016 97.8663 13.92 97.3383 13.92C96.5543 13.92 95.8983 14.08 95.3703 14.4C94.8583 14.72 94.4503 15.088 94.1463 15.504C93.8423 15.92 93.6263 16.328 93.4983 16.728C93.3703 17.112 93.3063 17.376 93.3063 17.52H101.178ZM116.237 8.448H110.429V7.008H123.629V8.448H117.821V24H116.237V8.448ZM123.639 16.032C123.639 15.824 123.631 15.576 123.615 15.288C123.599 14.984 123.583 14.68 123.567 14.376C123.567 14.072 123.559 13.792 123.543 13.536C123.527 13.264 123.519 13.056 123.519 12.912H124.959C124.975 13.328 124.983 13.728 124.983 14.112C124.999 14.496 125.023 14.744 125.055 14.856C125.423 14.2 125.895 13.664 126.471 13.248C127.047 12.832 127.751 12.624 128.583 12.624C128.727 12.624 128.863 12.64 128.991 12.672C129.135 12.688 129.279 12.712 129.423 12.744L129.255 14.16C129.063 14.096 128.879 14.064 128.703 14.064C128.079 14.064 127.535 14.168 127.071 14.376C126.623 14.568 126.247 14.84 125.943 15.192C125.655 15.544 125.439 15.96 125.295 16.44C125.151 16.904 125.079 17.408 125.079 17.952V24H123.639V16.032ZM131.871 12.912H133.311V24H131.871V12.912ZM131.511 8.52C131.511 8.216 131.615 7.96 131.823 7.752C132.031 7.544 132.287 7.44 132.591 7.44C132.895 7.44 133.151 7.544 133.359 7.752C133.567 7.96 133.671 8.216 133.671 8.52C133.671 8.824 133.567 9.08 133.359 9.288C133.151 9.496 132.895 9.6 132.591 9.6C132.287 9.6 132.031 9.496 131.823 9.288C131.615 9.08 131.511 8.824 131.511 8.52ZM148.533 23.28C148.533 24.656 148.333 25.768 147.933 26.616C147.533 27.464 147.029 28.12 146.421 28.584C145.829 29.048 145.189 29.36 144.501 29.52C143.813 29.68 143.189 29.76 142.629 29.76C142.069 29.76 141.517 29.704 140.973 29.592C140.445 29.496 139.941 29.344 139.461 29.136C138.981 28.944 138.541 28.704 138.141 28.416C137.757 28.128 137.421 27.8 137.133 27.432L138.261 26.376C138.773 27.096 139.413 27.624 140.181 27.96C140.949 28.296 141.765 28.464 142.629 28.464C143.365 28.464 143.981 28.368 144.477 28.176C144.989 27.984 145.405 27.728 145.725 27.408C146.061 27.104 146.317 26.76 146.493 26.376C146.685 26.008 146.821 25.632 146.901 25.248C146.997 24.88 147.053 24.528 147.069 24.192C147.085 23.856 147.093 23.584 147.093 23.376V21.84H147.045C146.629 22.512 146.061 23.04 145.341 23.424C144.637 23.808 143.805 24 142.845 24C142.029 24 141.261 23.856 140.541 23.568C139.821 23.264 139.189 22.856 138.645 22.344C138.117 21.816 137.693 21.208 137.373 20.52C137.069 19.832 136.917 19.096 136.917 18.312C136.917 17.528 137.069 16.792 137.373 16.104C137.693 15.416 138.117 14.816 138.645 14.304C139.189 13.792 139.821 13.384 140.541 13.08C141.261 12.776 142.029 12.624 142.845 12.624C143.805 12.624 144.637 12.816 145.341 13.2C146.061 13.584 146.629 14.112 147.045 14.784H147.093V12.912H148.533V23.28ZM147.141 18.312C147.141 17.704 147.021 17.136 146.781 16.608C146.557 16.064 146.245 15.6 145.845 15.216C145.461 14.816 144.997 14.504 144.453 14.28C143.925 14.04 143.357 13.92 142.749 13.92C142.141 13.92 141.565 14.04 141.021 14.28C140.493 14.504 140.029 14.816 139.629 15.216C139.245 15.6 138.933 16.064 138.693 16.608C138.469 17.136 138.357 17.704 138.357 18.312C138.357 18.92 138.469 19.496 138.693 20.04C138.933 20.568 139.245 21.032 139.629 21.432C140.029 21.816 140.493 22.128 141.021 22.368C141.565 22.592 142.141 22.704 142.749 22.704C143.357 22.704 143.925 22.592 144.453 22.368C144.997 22.128 145.461 21.816 145.845 21.432C146.245 21.032 146.557 20.568 146.781 20.04C147.021 19.496 147.141 18.92 147.141 18.312ZM163.204 23.28C163.204 24.656 163.004 25.768 162.604 26.616C162.204 27.464 161.7 28.12 161.092 28.584C160.5 29.048 159.86 29.36 159.172 29.52C158.484 29.68 157.86 29.76 157.3 29.76C156.74 29.76 156.188 29.704 155.644 29.592C155.116 29.496 154.612 29.344 154.132 29.136C153.652 28.944 153.212 28.704 152.812 28.416C152.428 28.128 152.092 27.8 151.804 27.432L152.932 26.376C153.444 27.096 154.084 27.624 154.852 27.96C155.62 28.296 156.436 28.464 157.3 28.464C158.036 28.464 158.652 28.368 159.148 28.176C159.66 27.984 160.076 27.728 160.396 27.408C160.732 27.104 160.988 26.76 161.164 26.376C161.356 26.008 161.492 25.632 161.572 25.248C161.668 24.88 161.724 24.528 161.74 24.192C161.756 23.856 161.764 23.584 161.764 23.376V21.84H161.716C161.3 22.512 160.732 23.04 160.012 23.424C159.308 23.808 158.476 24 157.516 24C156.7 24 155.932 23.856 155.212 23.568C154.492 23.264 153.86 22.856 153.316 22.344C152.788 21.816 152.364 21.208 152.044 20.52C151.74 19.832 151.588 19.096 151.588 18.312C151.588 17.528 151.74 16.792 152.044 16.104C152.364 15.416 152.788 14.816 153.316 14.304C153.86 13.792 154.492 13.384 155.212 13.08C155.932 12.776 156.7 12.624 157.516 12.624C158.476 12.624 159.308 12.816 160.012 13.2C160.732 13.584 161.3 14.112 161.716 14.784H161.764V12.912H163.204V23.28ZM161.812 18.312C161.812 17.704 161.692 17.136 161.452 16.608C161.228 16.064 160.916 15.6 160.516 15.216C160.132 14.816 159.668 14.504 159.124 14.28C158.596 14.04 158.028 13.92 157.42 13.92C156.812 13.92 156.236 14.04 155.692 14.28C155.164 14.504 154.7 14.816 154.3 15.216C153.916 15.6 153.604 16.064 153.364 16.608C153.14 17.136 153.028 17.704 153.028 18.312C153.028 18.92 153.14 19.496 153.364 20.04C153.604 20.568 153.916 21.032 154.3 21.432C154.7 21.816 155.164 22.128 155.692 22.368C156.236 22.592 156.812 22.704 157.42 22.704C158.028 22.704 158.596 22.592 159.124 22.368C159.668 22.128 160.132 21.816 160.516 21.432C160.916 21.032 161.228 20.568 161.452 20.04C161.692 19.496 161.812 18.92 161.812 18.312ZM176.532 21.912C175.972 22.76 175.276 23.368 174.444 23.736C173.628 24.104 172.724 24.288 171.732 24.288C170.884 24.288 170.116 24.144 169.428 23.856C168.74 23.568 168.148 23.168 167.652 22.656C167.156 22.128 166.772 21.512 166.5 20.808C166.244 20.088 166.116 19.296 166.116 18.432C166.116 17.6 166.252 16.832 166.524 16.128C166.796 15.424 167.18 14.816 167.676 14.304C168.172 13.776 168.756 13.368 169.428 13.08C170.1 12.776 170.844 12.624 171.66 12.624C172.508 12.624 173.252 12.776 173.892 13.08C174.548 13.368 175.092 13.76 175.524 14.256C175.972 14.736 176.308 15.288 176.532 15.912C176.756 16.536 176.868 17.168 176.868 17.808V18.816H167.556C167.556 19.12 167.612 19.512 167.724 19.992C167.852 20.456 168.076 20.912 168.396 21.36C168.716 21.808 169.14 22.192 169.668 22.512C170.212 22.832 170.908 22.992 171.756 22.992C172.492 22.992 173.204 22.816 173.892 22.464C174.58 22.112 175.108 21.632 175.476 21.024L176.532 21.912ZM175.428 17.52C175.428 17.024 175.324 16.56 175.116 16.128C174.924 15.696 174.652 15.32 174.3 15C173.964 14.664 173.556 14.4 173.076 14.208C172.612 14.016 172.116 13.92 171.588 13.92C170.804 13.92 170.148 14.08 169.62 14.4C169.108 14.72 168.7 15.088 168.396 15.504C168.092 15.92 167.876 16.328 167.748 16.728C167.62 17.112 167.556 17.376 167.556 17.52H175.428ZM180.076 16.032C180.076 15.824 180.068 15.576 180.052 15.288C180.036 14.984 180.02 14.68 180.004 14.376C180.004 14.072 179.996 13.792 179.98 13.536C179.964 13.264 179.956 13.056 179.956 12.912H181.396C181.412 13.328 181.42 13.728 181.42 14.112C181.436 14.496 181.46 14.744 181.492 14.856C181.86 14.2 182.332 13.664 182.908 13.248C183.484 12.832 184.188 12.624 185.02 12.624C185.164 12.624 185.3 12.64 185.428 12.672C185.572 12.688 185.716 12.712 185.86 12.744L185.692 14.16C185.5 14.096 185.316 14.064 185.14 14.064C184.516 14.064 183.972 14.168 183.508 14.376C183.06 14.568 182.684 14.84 182.38 15.192C182.092 15.544 181.876 15.96 181.732 16.44C181.588 16.904 181.516 17.408 181.516 17.952V24H180.076V16.032Z" fill="white"/>
</svg>
